<?xml version="1.0" standalone="no"?>
<!DOCTYPE svg PUBLIC "-//W3C//DTD SVG 20010904//EN"
 "http://www.w3.org/TR/2001/REC-SVG-20010904/DTD/svg10.dtd">
<svg version="1.0" xmlns="http://www.w3.org/2000/svg"
 width="512.000000pt" height="512.000000pt" viewBox="0 0 512.000000 512.000000"
 preserveAspectRatio="xMidYMid meet">

<g transform="translate(0.000000,512.000000) scale(0.100000,-0.100000)"
fill="#000000" stroke="none">
<path d="M412 5100 c-97 -26 -173 -70 -248 -144 -75 -76 -119 -151 -144 -252
-20 -76 -20 -115 -20 -2144 0 -2029 0 -2068 20 -2144 25 -101 69 -176 144
-252 76 -75 151 -119 252 -144 76 -20 115 -20 2144 -20 2029 0 2068 0 2144 20
101 25 176 69 252 144 75 76 119 151 144 252 20 76 20 115 20 2144 0 2029 0
2068 -20 2144 -26 103 -69 177 -149 256 -79 77 -142 114 -247 140 -76 20 -117
20 -2148 19 -2010 0 -2073 -1 -2144 -19z m2328 -590 c279 -20 411 -51 522
-123 76 -49 154 -136 191 -214 l32 -68 3 -539 c2 -473 1 -545 -14 -594 -35
-121 -99 -210 -198 -274 -114 -73 -95 -71 -736 -78 l-575 -5 -65 -26 c-174
-67 -315 -214 -372 -389 -19 -58 -22 -93 -26 -327 l-4 -263 -176 0 c-275 0
-360 27 -472 147 -108 115 -174 295 -215 584 -44 306 20 728 138 911 65 101
171 185 294 231 57 22 66 22 773 27 l715 5 3 58 3 57 -471 0 -470 0 0 218 c0
119 5 246 11 281 33 207 169 303 504 356 194 31 395 39 605 25z m1403 -1032
c163 -77 264 -273 334 -648 13 -71 17 -148 17 -300 1 -190 -1 -213 -26 -312
-77 -305 -184 -497 -313 -561 -93 -46 -115 -47 -875 -47 l-720 0 0 -60 0 -60
466 0 465 0 -3 -233 -3 -233 -33 -66 c-90 -182 -349 -312 -718 -359 -268 -33
-618 24 -838 138 -100 52 -215 167 -247 248 l-24 60 -3 505 c-2 351 0 523 8
565 29 149 127 276 266 342 l79 38 570 6 c631 6 609 4 745 75 89 47 160 111
219 200 87 129 94 166 99 472 l3 263 237 -3 c234 -3 238 -3 295 -30z"/>
<path d="M1952 4209 c-75 -37 -113 -121 -91 -201 16 -60 81 -123 135 -132 89
-15 180 45 204 133 28 104 -62 221 -171 221 -19 0 -53 -10 -77 -21z"/>
<path d="M3020 1243 c-84 -32 -132 -143 -99 -230 13 -34 55 -80 91 -99 37 -19
106 -18 147 4 167 84 110 334 -75 331 -27 0 -56 -3 -64 -6z"/>
</g>
</svg>
