<?xml version="1.0" standalone="no"?>
<!DOCTYPE svg PUBLIC "-//W3C//DTD SVG 20010904//EN"
 "http://www.w3.org/TR/2001/REC-SVG-20010904/DTD/svg10.dtd">
<svg version="1.0" xmlns="http://www.w3.org/2000/svg"
 width="512.000000pt" height="512.000000pt" viewBox="0 0 512.000000 512.000000"
 preserveAspectRatio="xMidYMid meet">

<g transform="translate(0.000000,512.000000) scale(0.100000,-0.100000)"
fill="#000000" stroke="none">
<path d="M1100 4945 c-293 -47 -576 -227 -747 -476 -117 -171 -193 -416 -193
-626 l0 -83 2400 0 2400 0 0 78 c0 551 -407 1026 -947 1107 -138 21 -2781 20
-2913 0z m426 -491 c53 -39 69 -71 69 -134 0 -63 -16 -95 -69 -134 -25 -19
-44 -21 -224 -24 -223 -4 -256 2 -301 53 -52 59 -54 147 -4 206 47 55 67 59
295 56 191 -2 209 -4 234 -23z"/>
<path d="M160 2323 c0 -1212 0 -1221 55 -1387 76 -231 237 -446 436 -583 66
-46 199 -110 286 -139 167 -54 155 -54 1623 -54 1472 0 1461 0 1628 55 410
138 700 489 762 920 6 43 10 501 10 1188 l0 1117 -2400 0 -2400 0 0 -1117z
m1118 352 c221 -148 252 -173 302 -247 107 -161 107 -375 0 -536 -50 -74 -81
-99 -304 -248 -177 -118 -179 -119 -237 -119 -62 0 -94 17 -133 69 -29 39 -29
133 0 173 11 15 103 84 204 153 205 138 230 165 230 240 0 75 -26 102 -220
232 -96 65 -187 131 -202 147 -49 54 -49 144 -1 202 37 43 78 60 136 56 41 -4
71 -20 225 -122z m1448 -1261 c53 -39 69 -71 69 -134 0 -63 -16 -95 -69 -134
-27 -20 -40 -21 -544 -24 -345 -2 -529 0 -554 8 -101 29 -140 168 -71 251 51
60 39 59 615 56 514 -2 527 -2 554 -23z"/>
</g>
</svg>
